<?xml version="1.0" standalone="no"?>
<!DOCTYPE svg PUBLIC "-//W3C//DTD SVG 20010904//EN"
 "http://www.w3.org/TR/2001/REC-SVG-20010904/DTD/svg10.dtd">
<svg version="1.0" xmlns="http://www.w3.org/2000/svg"
 width="224.000000pt" height="224.000000pt" viewBox="0 0 224.000000 224.000000"
 preserveAspectRatio="xMidYMid meet">
<metadata>
Created by potrace 1.10, written by Peter Selinger 2001-2011
</metadata>
<g transform="translate(0.000000,224.000000) scale(0.100000,-0.100000)"
fill="#000000" stroke="none">
<path d="M855 1924 c-82 -13 -169 -26 -193 -29 l-43 -6 3 -402 c3 -392 4 -403
25 -450 44 -96 199 -226 366 -308 l68 -34 85 45 c115 61 246 161 294 224 72
95 70 80 70 525 l0 399 -67 11 c-311 49 -312 49 -329 30 -31 -34 -86 -32 -119
6 -7 8 -48 6 -160 -11z m173 -45 l44 -22 51 22 51 21 146 -21 c80 -12 151 -26
158 -32 9 -7 12 -95 12 -381 0 -416 0 -411 -76 -496 -63 -70 -215 -176 -306
-214 -32 -14 -37 -13 -93 16 -142 72 -252 160 -310 247 l-35 53 0 389 0 389
23 5 c24 6 254 42 276 44 8 1 35 -9 59 -20z"/>
<path d="M1292 1729 c-14 -14 -21 -39 -24 -86 -4 -62 -6 -66 -46 -100 -23 -19
-49 -49 -58 -68 -20 -42 -62 -60 -139 -59 -94 1 -141 32 -233 153 -13 17 -30
31 -37 31 -27 0 -45 -43 -45 -107 0 -52 6 -73 38 -136 l39 -74 -43 -45 c-40
-42 -42 -48 -37 -89 6 -49 18 -69 41 -69 8 0 56 15 106 32 84 30 100 33 216
32 128 0 141 -3 292 -61 43 -16 49 -16 63 -2 9 9 18 37 20 63 3 44 1 50 -41
94 l-45 46 38 74 c32 64 37 84 41 160 l4 87 -47 63 c-59 78 -77 89 -103 61z
m48 -51 c11 -24 20 -62 20 -85 0 -24 5 -43 10 -43 6 0 10 21 10 46 0 27 4 43
10 39 6 -3 10 -44 10 -90 0 -100 -23 -172 -74 -231 l-33 -38 57 -42 c32 -23
61 -48 65 -54 14 -22 -4 -21 -47 3 -24 14 -54 28 -68 31 -20 6 -18 2 11 -16
58 -37 113 -87 106 -94 -4 -4 -29 5 -56 20 -154 83 -413 87 -570 7 -22 -12
-46 -21 -53 -21 -18 1 59 68 105 92 66 33 33 32 -38 -2 -37 -17 -69 -29 -72
-26 -7 6 46 53 93 82 l34 21 -26 24 c-61 57 -103 173 -89 247 l7 36 23 -48
c50 -103 140 -160 255 -161 93 0 160 34 175 90 6 22 16 40 22 40 6 0 14 3 18
7 4 4 13 4 20 2 21 -8 48 88 43 152 -3 30 -1 54 4 54 5 0 18 -19 28 -42z"/>
<path d="M467 463 l2 -178 48 3 c69 5 83 22 83 97 0 43 -5 66 -15 75 -13 11
-13 14 0 27 9 9 15 34 15 64 0 66 -23 89 -87 89 l-48 0 2 -177z m87 121 c16
-42 3 -94 -25 -94 -16 0 -19 8 -19 55 0 47 3 55 19 55 10 0 22 -7 25 -16z m0
-150 c10 -27 7 -89 -6 -102 -28 -28 -38 -13 -38 53 0 57 2 65 19 65 10 0 22
-7 25 -16z"/>
<path d="M640 460 c0 -173 1 -180 20 -180 18 0 20 7 20 85 0 47 3 85 8 85 21
-1 30 -22 35 -90 4 -41 6 -76 7 -78 0 -2 10 -2 22 0 20 3 21 8 19 73 -1 39 -8
79 -15 90 -11 17 -11 22 0 33 9 8 14 35 14 72 0 70 -19 90 -87 90 l-43 0 0
-180z m88 92 c3 -45 -10 -72 -34 -72 -10 0 -14 16 -14 61 0 57 1 60 23 57 18
-2 23 -10 25 -46z"/>
<path d="M810 463 l0 -178 62 1 c55 1 63 3 63 20 0 15 -7 19 -38 19 l-39 0 -1
68 c-2 67 -2 67 26 67 20 0 27 5 27 20 0 15 -7 20 -27 20 -27 0 -28 2 -28 50
l0 50 38 0 c30 0 37 4 37 20 0 18 -7 20 -60 20 l-60 0 0 -177z"/>
<path d="M960 633 c1 -5 9 -84 18 -178 l18 -170 26 -3 c26 -3 26 -3 33 85 10
141 18 149 28 27 l9 -111 27 -1 28 -1 12 127 c7 70 15 151 18 180 5 47 4 52
-14 52 -16 0 -21 -9 -27 -46 -3 -26 -6 -70 -6 -98 0 -28 -4 -57 -9 -65 -5 -8
-11 29 -16 98 -7 107 -8 111 -30 111 -25 0 -22 10 -42 -160 l-7 -65 -7 55 c-4
30 -7 81 -8 113 -1 54 -2 57 -26 57 -14 0 -25 -3 -25 -7z"/>
<path d="M1210 461 l0 -178 53 5 c79 7 81 12 85 165 3 123 2 134 -18 160 -18
23 -29 27 -71 27 l-49 0 0 -179z m88 5 c3 -126 -1 -145 -30 -146 -5 0 -8 63
-8 141 0 128 2 140 18 137 15 -3 17 -19 20 -132z"/>
<path d="M1396 618 c-13 -18 -16 -51 -16 -156 0 -128 1 -134 25 -157 29 -30
68 -32 95 -5 18 18 20 33 20 158 0 163 -7 182 -70 182 -29 0 -43 -6 -54 -22z
m69 -154 c0 -117 -2 -139 -15 -139 -12 0 -15 22 -18 129 -3 137 0 160 21 153
9 -3 12 -40 12 -143z"/>
<path d="M1578 629 c-16 -9 -18 -28 -18 -164 0 -126 3 -156 16 -169 18 -19 38
-20 65 -6 13 7 19 7 19 0 0 -5 7 -10 15 -10 12 0 15 17 15 95 l0 95 -35 0
c-28 0 -35 -4 -35 -20 0 -11 7 -20 16 -20 12 0 14 -10 12 -52 -3 -45 -6 -53
-23 -53 -19 0 -20 8 -23 136 -2 112 0 138 12 142 22 9 39 -19 32 -53 -5 -27
-3 -30 19 -30 22 0 25 4 25 38 0 52 -23 82 -63 82 -18 0 -40 -5 -49 -11z"/>
</g>
</svg>
